# xmcd
#
# Track frame offsets:
#	150
#	17325
#	39947
#	55620
#	75955
#	87812
#	111727
#	128535
#	150122
#	167635
#	183722
#	198550
#	215930
#	228757
#	249755
#	262017
#	277765
#	295527
#	309385
#	324787
#
# Disc length: 4606
#
# Revision: 2
# Processed by: cddbd v1.5.1PL0 Copyright (c) Steve Scherf et al.
# Submitted via: CedeCatalogueitor 2.6.0.5 http://personales.ya.com/cdcatalogueitor
# Normalized: r1:DSETVAR1
#
DISCID=f311fc14
DTITLE=Various Artist - Forever Black Cd 2
DYEAR=1900
DGENRE=
TTITLE0=Ray Charles and Dee Dee Bridgewater - Precious Thing
TTITLE1=Al Green - Love And Happiness
TTITLE2=Billy Paul - Let Em In
TTITLE3=Terence Trent D'arby (Tida) - Sign Your Name
TTITLE4=Aaron Neville - Tell It Like It Is
TTITLE5=Jevetta Steele - Calling You
TTITLE6=Stevie B - Because I Love You
TTITLE7=Amii Stewart - Friends
TTITLE8=Teddy Pendergrass - The Whole Town's Laughing At Me
TTITLE9=Mc Fadden and Whitehead - Ain't No Stoppin' Us Now
TTITLE10=D' Jays - Used Ta Be My Girl
TTITLE11=Oscar Benton - Bensonhurst Blues
TTITLE12=Percy Sledge - When A Man Loves A Women
TTITLE13=Oliver Cheatham - Ain't No Sunshine
TTITLE14=The Platters - Only You
TTITLE15=Earl Duke - I've Been Loving You Too Long
TTITLE16=Syreeta - With You I'm Born Again
TTITLE17=Mari Wilson - Cry Me A River
TTITLE18=Dana Dawson - Ready To Follow You
TTITLE19=Shirley Bassey - The Power Of Love
EXTD=
EXTT0=
EXTT1=
EXTT2=
EXTT3=
EXTT4=
EXTT5=
EXTT6=
EXTT7=
EXTT8=
EXTT9=
EXTT10=
EXTT11=
EXTT12=
EXTT13=
EXTT14=
EXTT15=
EXTT16=
EXTT17=
EXTT18=
EXTT19=
PLAYORDER=
